<svg width="30" height="30" viewBox="0 0 30 30" fill="none" xmlns="http://www.w3.org/2000/svg">
<path d="M15.0002 22.3652C15.4543 22.3652 15.9231 22.1807 16.2454 21.8555C16.5852 21.5098 16.761 21.0703 16.7756 20.5898C16.7815 20.4229 16.7493 20.25 16.7024 20.0859C16.6233 19.8164 16.468 19.5439 16.2688 19.3447C16.0989 19.1748 15.9114 19.0576 15.6946 18.9668C15.469 18.8701 15.2581 18.8145 15.0032 18.8145C14.8479 18.8145 14.6663 18.8437 14.5168 18.8818C14.2502 18.9521 13.9573 19.125 13.761 19.3213C13.4358 19.6465 13.2131 20.1211 13.2307 20.5869C13.2454 21.0469 13.4065 21.4834 13.7288 21.8174C14.0715 22.1836 14.511 22.3389 15.0002 22.3652C15.3635 22.3857 15.7854 22.1865 16.0374 21.9375C16.2922 21.6826 16.4827 21.2666 16.4651 20.9004C16.4475 20.5225 16.3245 20.1299 16.0374 19.8633C15.7415 19.5938 15.4045 19.4561 15.0002 19.4355C14.9885 19.4355 14.9768 19.4355 14.9651 19.4326C15.094 19.4502 15.2258 19.4678 15.3547 19.4854C15.3196 19.4795 15.2932 19.4736 15.261 19.459C15.3782 19.5088 15.4954 19.5586 15.6096 19.6055C15.5891 19.5967 15.5715 19.585 15.554 19.5732C15.6536 19.6494 15.7502 19.7256 15.8499 19.8018C15.8235 19.7813 15.803 19.7607 15.7825 19.7344C15.8586 19.834 15.9348 19.9307 16.011 20.0303C15.9993 20.0127 15.9875 19.9951 15.9788 19.9746C16.0286 20.0918 16.0784 20.209 16.1252 20.3232C16.1135 20.291 16.1047 20.2617 16.0989 20.2295C16.1165 20.3584 16.134 20.4902 16.1516 20.6191C16.1487 20.5752 16.1487 20.5957 16.1516 20.5518C16.134 20.6807 16.1165 20.8125 16.0989 20.9414C16.1047 20.9063 16.1106 20.8799 16.1252 20.8477C16.0754 20.9648 16.0256 21.082 15.9788 21.1963C15.9875 21.1758 15.9993 21.1582 16.011 21.1406C15.9348 21.2402 15.8586 21.3369 15.7825 21.4365C15.803 21.4102 15.8235 21.3897 15.8499 21.3691C15.7502 21.4453 15.6536 21.5215 15.554 21.5977C15.5715 21.5859 15.5891 21.5742 15.6096 21.5654C15.4924 21.6152 15.3752 21.665 15.261 21.7119C15.2932 21.7002 15.3225 21.6914 15.3547 21.6855C15.2258 21.7031 15.094 21.7207 14.9651 21.7383C15.009 21.7354 14.9885 21.7354 15.0325 21.7383C14.9036 21.7207 14.7717 21.7031 14.6428 21.6855C14.678 21.6914 14.7043 21.6973 14.7366 21.7119C14.6194 21.6621 14.5022 21.6123 14.3879 21.5654C14.4084 21.5742 14.426 21.5859 14.4436 21.5977C14.344 21.5215 14.2473 21.4453 14.1477 21.3691C14.1741 21.3897 14.1946 21.4102 14.2151 21.4365C14.1389 21.3369 14.0627 21.2402 13.9866 21.1406C13.9983 21.1582 14.01 21.1758 14.0188 21.1963C13.969 21.0791 13.9192 20.9619 13.8723 20.8477C13.884 20.8799 13.8928 20.9092 13.8987 20.9414C13.8811 20.8125 13.8635 20.6807 13.8459 20.5518C13.8489 20.5957 13.8489 20.5752 13.8459 20.6191C13.8635 20.4902 13.8811 20.3584 13.8987 20.2295C13.8928 20.2646 13.887 20.291 13.8723 20.3232C13.9221 20.2061 13.9719 20.0889 14.0188 19.9746C14.01 19.9951 13.9983 20.0127 13.9866 20.0303C14.0627 19.9307 14.1389 19.834 14.2151 19.7344C14.1946 19.7607 14.1741 19.7813 14.1477 19.8018C14.2473 19.7256 14.344 19.6494 14.4436 19.5732C14.426 19.585 14.4084 19.5967 14.3879 19.6055C14.5051 19.5557 14.6223 19.5059 14.7366 19.459C14.7043 19.4707 14.675 19.4795 14.6428 19.4854C14.7717 19.4678 14.9036 19.4502 15.0325 19.4326C15.0207 19.4326 15.009 19.4355 14.9973 19.4355C14.6223 19.4355 14.2268 19.5996 13.9602 19.8633C13.7053 20.1182 13.5149 20.5342 13.5325 20.9004C13.55 21.2783 13.6731 21.6709 13.9602 21.9375C14.2502 22.1982 14.6047 22.3652 15.0002 22.3652Z" fill="#ED6A6A"/>
<path d="M13.5352 8.5459C13.5352 9.41309 13.5352 10.2803 13.5352 11.1445C13.5352 12.5273 13.5352 13.9102 13.5352 15.29C13.5352 15.6094 13.5352 15.9287 13.5352 16.2451C13.5352 16.6201 13.6992 17.0156 13.9629 17.2822C14.2178 17.5371 14.6338 17.7275 15 17.71C15.3779 17.6924 15.7705 17.5693 16.0371 17.2822C16.3008 16.9951 16.4648 16.6436 16.4648 16.2451C16.4648 15.3779 16.4648 14.5107 16.4648 13.6465C16.4648 12.2637 16.4648 10.8809 16.4648 9.50098C16.4648 9.18164 16.4648 8.8623 16.4648 8.5459C16.4648 8.1709 16.3008 7.77539 16.0371 7.50879C15.7822 7.25391 15.3662 7.06348 15 7.08105C14.6221 7.09863 14.2295 7.22168 13.9629 7.50879C13.7021 7.7959 13.5352 8.14746 13.5352 8.5459Z" fill="#ED6A6A"/>
<path d="M26.411 15C26.411 15.5859 26.37 16.1689 26.2938 16.749C26.3114 16.6201 26.329 16.4883 26.3466 16.3594C26.1942 17.4697 25.8983 18.5596 25.4647 19.5937C25.5145 19.4766 25.5644 19.3594 25.6112 19.2451C25.1806 20.2676 24.6181 21.2314 23.9413 22.1103C24.0175 22.0107 24.0936 21.9141 24.1698 21.8144C23.4872 22.6963 22.6962 23.4902 21.8143 24.1699C21.914 24.0937 22.0106 24.0176 22.1102 23.9414C21.2313 24.6182 20.2675 25.1777 19.245 25.6113C19.3622 25.5615 19.4794 25.5117 19.5936 25.4648C18.5595 25.8984 17.4696 26.1943 16.3593 26.3467C16.4882 26.3291 16.62 26.3115 16.7489 26.2939C15.5888 26.4492 14.4081 26.4492 13.2479 26.2939C13.3769 26.3115 13.5087 26.3291 13.6376 26.3467C12.5272 26.1943 11.4374 25.8984 10.4032 25.4648C10.5204 25.5146 10.6376 25.5645 10.7518 25.6113C9.72939 25.1807 8.76552 24.6182 7.88662 23.9414C7.98623 24.0176 8.0829 24.0937 8.18251 24.1699C7.30068 23.4873 6.50673 22.6963 5.82705 21.8144C5.90322 21.9141 5.97939 22.0107 6.05556 22.1103C5.3788 21.2314 4.81923 20.2676 4.38564 19.2451C4.43544 19.3623 4.48525 19.4795 4.53212 19.5937C4.09853 18.5596 3.80263 17.4697 3.65029 16.3594C3.66787 16.4883 3.68544 16.6201 3.70302 16.749C3.54775 15.5889 3.54775 14.4082 3.70302 13.248C3.68544 13.377 3.66787 13.5088 3.65029 13.6377C3.80263 12.5273 4.09853 11.4375 4.53212 10.4033C4.48232 10.5205 4.43251 10.6377 4.38564 10.752C4.8163 9.72949 5.3788 8.76562 6.05556 7.88672C5.97939 7.98633 5.90322 8.08301 5.82705 8.18262C6.50966 7.30078 7.30068 6.50683 8.18251 5.82715C8.0829 5.90332 7.98623 5.97949 7.88662 6.05566C8.76552 5.3789 9.72939 4.81933 10.7518 4.38574C10.6347 4.43555 10.5175 4.48535 10.4032 4.53223C11.4374 4.09863 12.5272 3.80273 13.6376 3.65039C13.5087 3.66797 13.3769 3.68555 13.2479 3.70312C14.4081 3.54785 15.5888 3.54785 16.7489 3.70312C16.62 3.68555 16.4882 3.66797 16.3593 3.65039C17.4696 3.80273 18.5595 4.09863 19.5936 4.53223C19.4765 4.48242 19.3593 4.43262 19.245 4.38574C20.2675 4.81641 21.2313 5.3789 22.1102 6.05566C22.0106 5.97949 21.914 5.90332 21.8143 5.82715C22.6962 6.50976 23.4901 7.30078 24.1698 8.18262C24.0936 8.08301 24.0175 7.98633 23.9413 7.88672C24.6181 8.76562 25.1776 9.72949 25.6112 10.752C25.5614 10.6348 25.5116 10.5176 25.4647 10.4033C25.8983 11.4375 26.1942 12.5273 26.3466 13.6377C26.329 13.5088 26.3114 13.377 26.2938 13.248C26.37 13.8311 26.4081 14.4141 26.411 15C26.411 15.375 26.5751 15.7705 26.8388 16.0371C27.0936 16.292 27.5097 16.4824 27.8759 16.4648C28.2538 16.4473 28.6464 16.3242 28.913 16.0371C29.1767 15.75 29.3436 15.3984 29.3407 15C29.3378 13.5293 29.1181 12.0352 28.664 10.6348C28.2216 9.27539 27.5888 7.96289 26.7597 6.79687C26.3173 6.17578 25.8339 5.57519 25.3036 5.02441C24.7733 4.47656 24.1962 3.99316 23.5927 3.53027C22.4501 2.6543 21.1757 1.99219 19.828 1.49707C18.4511 0.990234 16.9774 0.726562 15.5155 0.667968C14.0331 0.609375 12.5155 0.793945 11.0858 1.19824C9.71767 1.58789 8.38173 2.18555 7.19228 2.96777C6.00869 3.74707 4.92177 4.6875 4.01943 5.78027C3.53603 6.36621 3.08193 6.98144 2.69228 7.63183C2.29384 8.29687 1.96865 8.99707 1.67568 9.71191C1.11611 11.0742 0.81142 12.5244 0.700092 13.9922C0.585834 15.4746 0.726459 16.9893 1.07509 18.4336C1.41201 19.8252 1.98037 21.1875 2.72451 22.4121C3.454 23.6133 4.36806 24.7295 5.41982 25.6641C6.4833 26.6074 7.67568 27.4189 8.97353 28.0049C9.67958 28.3242 10.4003 28.6055 11.1444 28.8135C11.9149 29.0273 12.6972 29.1592 13.4911 29.25C14.9765 29.4228 16.4882 29.3262 17.9501 29.0303C19.3622 28.7461 20.7392 28.2187 21.996 27.5156C23.2235 26.8301 24.369 25.9453 25.3388 24.9287C26.3173 23.9062 27.1669 22.7285 27.7968 21.46C28.4413 20.165 28.9159 18.7822 29.1356 17.3525C29.2558 16.5703 29.3378 15.7852 29.3378 14.9941C29.3378 14.6191 29.1737 14.2236 28.9101 13.957C28.6552 13.7021 28.2392 13.5117 27.8729 13.5293C27.495 13.5469 27.1024 13.6699 26.8358 13.957C26.5751 14.25 26.411 14.6016 26.411 15Z" fill="#ED6A6A"/>
</svg>
